<?xml version="1.0" encoding="UTF-8"?>
<!DOCTYPE svg PUBLIC "-//W3C//DTD SVG 1.1//EN" "http://www.w3.org/Graphics/SVG/1.1/DTD/svg11.dtd">
<!-- Creator: CorelDRAW X6 -->
<svg xmlns="http://www.w3.org/2000/svg" xml:space="preserve" width="180px" height="134px" version="1.1" shape-rendering="geometricPrecision" text-rendering="geometricPrecision" image-rendering="optimizeQuality" fill-rule="evenodd" clip-rule="evenodd"
viewBox="0 0 2978 2228"
 xmlns:xlink="http://www.w3.org/1999/xlink">
 <g id="Ebene_x0020_1">
  <metadata id="CorelCorpID_0Corel-Layer"/>
  <g id="Chames-SVG-01.cdr">
   <polygon fill="#00A658" points="934,1635 1168,1635 1094,1561 1024,1465 934,1401 "/>
   <polygon fill="#00A658" points="437,2071 496,2160 593,2228 608,2146 593,2071 "/>
   <polygon fill="#F2D200" points="593,1915 607,1974 593,2035 474,1915 "/>
   <polygon fill="#F65973" points="749,2071 593,2228 593,1915 "/>
   <polygon fill="#32B814" points="296,2228 270,2077 296,1931 593,2228 "/>
   <polygon fill="#0092CA" points="0,1931 134,1771 296,1635 296,2228 "/>
   <polygon fill="#6612A2" points="1464,1202 1571,1184 1657,1202 1741,1491 1603,1364 "/>
   <polygon fill="#315BAB" points="1741,1491 1685,1577 1595,1635 1464,1202 "/>
   <polygon fill="#00A2D3" points="1741,1491 1888,1635 1595,1635 "/>
   <polygon fill="#005EA4" points="619,1635 675,1541 762,1492 906,1635 "/>
   <polygon fill="#6612A2" points="892,1362 619,1635 728,1200 835,1264 "/>
   <polygon fill="#6612A2" points="2036,1412 1825,1202 1925,1176 2037,1202 2053,1299 "/>
   <polygon fill="#EA5204" points="2036,940 2147,790 2271,705 2742,705 2978,940 2507,980 "/>
   <polygon fill="#0066AF" points="2036,940 2036,1412 2978,940 "/>
   <polygon fill="#AD1DA2" points="0,1202 368,1172 730,1202 0,1931 "/>
   <polygon fill="#F9AD00" points="2036,469 2036,234 2507,469 2265,492 "/>
   <polygon fill="#F65973" points="2036,469 2012,701 2036,940 2271,705 2177,576 "/>
   <polygon fill="#BBD700" points="2036,469 2271,705 2407,597 2507,469 "/>
   <polygon fill="#1AB51D" points="2507,940 2271,704 2503,685 2742,704 "/>
   <polygon fill="#EAE100" points="2507,469 2271,704 2742,704 "/>
   <polygon fill="#0066AF" points="2507,636 2438,704 2506,721 2575,704 "/>
   <polygon fill="#6612A2" points="2507,773 2438,704 2575,704 "/>
   <polygon fill="#BBD700" points="363,479 723,479 561,678 363,839 "/>
   <polygon fill="#F2D200" points="183,839 363,839 279,945 183,1019 "/>
   <polygon fill="#6612A2" points="1381,551 2037,1202 727,1202 "/>
   <polygon fill="#AD1DA2" points="1381,551 1223,674 1093,837 1667,837 1669,836 1546,662 "/>
   <polygon fill="#00A658" points="1750,182 1548,344 1381,551 1669,836 1869,681 2036,469 2036,468 "/>
   <polygon fill="#F9AD00" points="723,182 1020,182 883,350 723,479 "/>
   <polygon fill="#F65973" points="1567,0 1750,182 1566,200 1385,182 "/>
   <polygon fill="#00A2D3" points="365,837 0,1202 729,1202 567,1008 "/>
   <polygon fill="#BBD700" points="730,1202 915,1049 1094,838 732,785 365,837 566,1038 "/>
   <polygon fill="#EA5204" points="730,1202 1094,838 1094,1562 "/>
   <polygon fill="#0092CA" points="1669,836 1867,979 2036,1202 1595,1202 1605,1030 "/>
   <polygon fill="#BBD700" points="1595,1202 1510,1140 1450,1057 1669,836 "/>
   <polygon fill="#F9AD00" points="1595,1202 1450,1057 1305,1492 1460,1367 "/>
   <polygon fill="#00A658" points="1306,1489 1381,1548 1471,1571 1595,1202 "/>
   <polygon fill="#00A658" points="1259,1635 1306,1488 1601,1635 "/>
   <polygon fill="#1AB51D" points="1202,0 1020,182 1202,201 1385,182 "/>
   <polygon fill="#F9AD00" points="1381,551 1750,182 1020,182 1189,387 "/>
   <polygon fill="#1AB51D" points="2036,1202 2036,469 1669,836 "/>
   <polygon fill="#0066AF" points="1093,838 930,631 723,479 365,838 "/>
   <polygon fill="#E31245" points="723,479 1093,838 1093,838 1093,837 1381,551 1020,182 "/>
  </g>
 </g>
</svg>
