<svg id="visual" viewBox="0 0 900 450" width="900" height="450" xmlns="http://www.w3.org/2000/svg" xmlns:xlink="http://www.w3.org/1999/xlink" version="1.1"><rect x="0" y="0" width="900" height="450" fill="#031C19"></rect><defs><linearGradient id="grad1_0" x1="50%" y1="0%" x2="100%" y2="100%"><stop offset="10%" stop-color="#c79597" stop-opacity="1"></stop><stop offset="90%" stop-color="#c79597" stop-opacity="1"></stop></linearGradient></defs><defs><linearGradient id="grad1_1" x1="50%" y1="0%" x2="100%" y2="100%"><stop offset="10%" stop-color="#c79597" stop-opacity="1"></stop><stop offset="90%" stop-color="#947662" stop-opacity="1"></stop></linearGradient></defs><defs><linearGradient id="grad1_2" x1="50%" y1="0%" x2="100%" y2="100%"><stop offset="10%" stop-color="#5c5940" stop-opacity="1"></stop><stop offset="90%" stop-color="#947662" stop-opacity="1"></stop></linearGradient></defs><defs><linearGradient id="grad1_3" x1="50%" y1="0%" x2="100%" y2="100%"><stop offset="10%" stop-color="#5c5940" stop-opacity="1"></stop><stop offset="90%" stop-color="#2b3a2b" stop-opacity="1"></stop></linearGradient></defs><defs><linearGradient id="grad1_4" x1="50%" y1="0%" x2="100%" y2="100%"><stop offset="10%" stop-color="#031c19" stop-opacity="1"></stop><stop offset="90%" stop-color="#2b3a2b" stop-opacity="1"></stop></linearGradient></defs><defs><linearGradient id="grad2_0" x1="0%" y1="0%" x2="50%" y2="100%"><stop offset="10%" stop-color="#c79597" stop-opacity="1"></stop><stop offset="90%" stop-color="#c79597" stop-opacity="1"></stop></linearGradient></defs><defs><linearGradient id="grad2_1" x1="0%" y1="0%" x2="50%" y2="100%"><stop offset="10%" stop-color="#947662" stop-opacity="1"></stop><stop offset="90%" stop-color="#c79597" stop-opacity="1"></stop></linearGradient></defs><defs><linearGradient id="grad2_2" x1="0%" y1="0%" x2="50%" y2="100%"><stop offset="10%" stop-color="#947662" stop-opacity="1"></stop><stop offset="90%" stop-color="#5c5940" stop-opacity="1"></stop></linearGradient></defs><defs><linearGradient id="grad2_3" x1="0%" y1="0%" x2="50%" y2="100%"><stop offset="10%" stop-color="#2b3a2b" stop-opacity="1"></stop><stop offset="90%" stop-color="#5c5940" stop-opacity="1"></stop></linearGradient></defs><defs><linearGradient id="grad2_4" x1="0%" y1="0%" x2="50%" y2="100%"><stop offset="10%" stop-color="#2b3a2b" stop-opacity="1"></stop><stop offset="90%" stop-color="#031c19" stop-opacity="1"></stop></linearGradient></defs><g transform="translate(900, 0)"><path d="M0 208C-43.6 251.2 -87.2 294.4 -120.5 291C-153.9 287.7 -177 237.8 -200.1 200.1C-223.2 162.4 -246.2 136.9 -255 105.6C-263.8 74.3 -258.4 37.2 -253 0L0 0Z" fill="#162b22"></path><path d="M0 166.4C-34.9 200.9 -69.7 235.5 -96.4 232.8C-123.1 230.1 -141.6 190.2 -160.1 160.1C-178.5 129.9 -196.9 109.6 -204 84.5C-211 59.4 -206.7 29.7 -202.4 0L0 0Z" fill="#424a35"></path><path d="M0 124.8C-26.2 150.7 -52.3 176.6 -72.3 174.6C-92.3 172.6 -106.2 142.7 -120.1 120.1C-133.9 97.5 -147.7 82.2 -153 63.4C-158.3 44.6 -155 22.3 -151.8 0L0 0Z" fill="#78674f"></path><path d="M0 83.2C-17.4 100.5 -34.9 117.7 -48.2 116.4C-61.6 115.1 -70.8 95.1 -80 80C-89.3 65 -98.5 54.8 -102 42.2C-105.5 29.7 -103.4 14.9 -101.2 0L0 0Z" fill="#af857a"></path><path d="M0 41.6C-8.7 50.2 -17.4 58.9 -24.1 58.2C-30.8 57.5 -35.4 47.6 -40 40C-44.6 32.5 -49.2 27.4 -51 21.1C-52.8 14.9 -51.7 7.4 -50.6 0L0 0Z" fill="#c79597"></path></g><g transform="translate(0, 450)"><path d="M0 -294C42.6 -290.7 85.2 -287.3 109.4 -264.2C133.7 -241.1 139.7 -198.3 174.7 -174.7C209.6 -151 273.5 -146.5 291 -120.5C308.6 -94.6 279.8 -47.3 251 0L0 0Z" fill="#162b22"></path><path d="M0 -235.2C34.1 -232.5 68.1 -229.8 87.6 -211.4C107 -192.9 111.8 -158.7 139.7 -139.7C167.7 -120.8 218.8 -117.2 232.8 -96.4C246.9 -75.7 223.8 -37.9 200.8 0L0 0Z" fill="#424a35"></path><path d="M0 -176.4C25.5 -174.4 51.1 -172.4 65.7 -158.5C80.2 -144.7 83.8 -119 104.8 -104.8C125.8 -90.6 164.1 -87.9 174.6 -72.3C185.1 -56.8 167.9 -28.4 150.6 0L0 0Z" fill="#78674f"></path><path d="M0 -117.6C17 -116.3 34.1 -114.9 43.8 -105.7C53.5 -96.5 55.9 -79.3 69.9 -69.9C83.8 -60.4 109.4 -58.6 116.4 -48.2C123.4 -37.9 111.9 -18.9 100.4 0L0 0Z" fill="#af857a"></path><path d="M0 -58.8C8.5 -58.1 17 -57.5 21.9 -52.8C26.7 -48.2 27.9 -39.7 34.9 -34.9C41.9 -30.2 54.7 -29.3 58.2 -24.1C61.7 -18.9 56 -9.5 50.2 0L0 0Z" fill="#c79597"></path></g></svg>