<svg id="visual" viewBox="0 0 900 450" width="900" height="450" xmlns="http://www.w3.org/2000/svg" xmlns:xlink="http://www.w3.org/1999/xlink" version="1.1"><rect x="0" y="0" width="900" height="450" fill="#001220"></rect><defs><linearGradient id="grad1_0" x1="50%" y1="100%" x2="100%" y2="0%"><stop offset="10%" stop-color="#fbae3c" stop-opacity="1"></stop><stop offset="90%" stop-color="#fbae3c" stop-opacity="1"></stop></linearGradient></defs><defs><linearGradient id="grad1_1" x1="50%" y1="100%" x2="100%" y2="0%"><stop offset="10%" stop-color="#fbae3c" stop-opacity="1"></stop><stop offset="90%" stop-color="#cc5867" stop-opacity="1"></stop></linearGradient></defs><defs><linearGradient id="grad1_2" x1="50%" y1="100%" x2="100%" y2="0%"><stop offset="10%" stop-color="#593762" stop-opacity="1"></stop><stop offset="90%" stop-color="#cc5867" stop-opacity="1"></stop></linearGradient></defs><defs><linearGradient id="grad1_3" x1="50%" y1="100%" x2="100%" y2="0%"><stop offset="10%" stop-color="#593762" stop-opacity="1"></stop><stop offset="90%" stop-color="#001220" stop-opacity="1"></stop></linearGradient></defs><defs><linearGradient id="grad2_0" x1="0%" y1="100%" x2="50%" y2="0%"><stop offset="10%" stop-color="#fbae3c" stop-opacity="1"></stop><stop offset="90%" stop-color="#fbae3c" stop-opacity="1"></stop></linearGradient></defs><defs><linearGradient id="grad2_1" x1="0%" y1="100%" x2="50%" y2="0%"><stop offset="10%" stop-color="#cc5867" stop-opacity="1"></stop><stop offset="90%" stop-color="#fbae3c" stop-opacity="1"></stop></linearGradient></defs><defs><linearGradient id="grad2_2" x1="0%" y1="100%" x2="50%" y2="0%"><stop offset="10%" stop-color="#cc5867" stop-opacity="1"></stop><stop offset="90%" stop-color="#593762" stop-opacity="1"></stop></linearGradient></defs><defs><linearGradient id="grad2_3" x1="0%" y1="100%" x2="50%" y2="0%"><stop offset="10%" stop-color="#001220" stop-opacity="1"></stop><stop offset="90%" stop-color="#593762" stop-opacity="1"></stop></linearGradient></defs><g transform="translate(900, 450)"><path d="M-337.5 0C-318 -29.2 -298.4 -58.5 -292 -94.9C-285.5 -131.3 -292.2 -174.9 -273 -198.4C-253.9 -221.9 -208.8 -225.2 -178.1 -245.1C-147.4 -265 -131.1 -301.4 -103.8 -319.6C-76.5 -337.7 -38.3 -337.6 0 -337.5L0 0Z" fill="#232745"></path><path d="M-253.1 0C-238.5 -21.9 -223.8 -43.8 -219 -71.2C-214.2 -98.5 -219.2 -131.2 -204.8 -148.8C-190.4 -166.4 -156.6 -168.9 -133.6 -183.8C-110.6 -198.8 -98.3 -226.1 -77.9 -239.7C-57.4 -253.3 -28.7 -253.2 0 -253.1L0 0Z" fill="#96446e"></path><path d="M-168.7 0C-159 -14.6 -149.2 -29.2 -146 -47.4C-142.8 -65.6 -146.1 -87.4 -136.5 -99.2C-126.9 -110.9 -104.4 -112.6 -89 -122.6C-73.7 -132.5 -65.6 -150.7 -51.9 -159.8C-38.3 -168.9 -19.1 -168.8 0 -168.7L0 0Z" fill="#f17c53"></path><path d="M-84.4 0C-79.5 -7.3 -74.6 -14.6 -73 -23.7C-71.4 -32.8 -73.1 -43.7 -68.3 -49.6C-63.5 -55.5 -52.2 -56.3 -44.5 -61.3C-36.9 -66.3 -32.8 -75.4 -26 -79.9C-19.1 -84.4 -9.6 -84.4 0 -84.4L0 0Z" fill="#fbae3c"></path></g><g transform="translate(0, 0)"><path d="M337.5 0C327.8 34 318.1 68.1 306.2 99.5C294.4 130.9 280.3 159.7 263.7 191.6C247.1 223.5 228 258.5 198.4 273C168.8 287.6 128.7 281.8 93.9 289.1C59.1 296.5 29.6 317 0 337.5L0 0Z" fill="#232745"></path><path d="M253.1 0C245.9 25.5 238.6 51.1 229.7 74.6C220.8 98.2 210.3 119.8 197.8 143.7C185.4 167.6 171 193.9 148.8 204.8C126.6 215.7 96.6 211.3 70.5 216.8C44.4 222.3 22.2 237.7 0 253.1L0 0Z" fill="#96446e"></path><path d="M168.8 0C163.9 17 159.1 34 153.1 49.8C147.2 65.5 140.2 79.9 131.9 95.8C123.6 111.8 114 129.2 99.2 136.5C84.4 143.8 64.4 140.9 47 144.6C29.6 148.2 14.8 158.5 0 168.8L0 0Z" fill="#f17c53"></path><path d="M84.4 0C82 8.5 79.5 17 76.6 24.9C73.6 32.7 70.1 39.9 65.9 47.9C61.8 55.9 57 64.6 49.6 68.3C42.2 71.9 32.2 70.4 23.5 72.3C14.8 74.1 7.4 79.2 0 84.4L0 0Z" fill="#fbae3c"></path></g></svg>