<svg id="visual" viewBox="0 0 900 450" width="900" height="450" xmlns="http://www.w3.org/2000/svg" xmlns:xlink="http://www.w3.org/1999/xlink" version="1.1"><rect x="0" y="0" width="900" height="450" fill="#031C19"></rect><defs><linearGradient id="grad1_0" x1="50%" y1="0%" x2="100%" y2="100%"><stop offset="10%" stop-color="#faf778" stop-opacity="1"></stop><stop offset="90%" stop-color="#faf778" stop-opacity="1"></stop></linearGradient></defs><defs><linearGradient id="grad1_1" x1="50%" y1="0%" x2="100%" y2="100%"><stop offset="10%" stop-color="#faf778" stop-opacity="1"></stop><stop offset="90%" stop-color="#9ac167" stop-opacity="1"></stop></linearGradient></defs><defs><linearGradient id="grad1_2" x1="50%" y1="0%" x2="100%" y2="100%"><stop offset="10%" stop-color="#508856" stop-opacity="1"></stop><stop offset="90%" stop-color="#9ac167" stop-opacity="1"></stop></linearGradient></defs><defs><linearGradient id="grad1_3" x1="50%" y1="0%" x2="100%" y2="100%"><stop offset="10%" stop-color="#508856" stop-opacity="1"></stop><stop offset="90%" stop-color="#1c503d" stop-opacity="1"></stop></linearGradient></defs><defs><linearGradient id="grad1_4" x1="50%" y1="0%" x2="100%" y2="100%"><stop offset="10%" stop-color="#031c19" stop-opacity="1"></stop><stop offset="90%" stop-color="#1c503d" stop-opacity="1"></stop></linearGradient></defs><defs><linearGradient id="grad2_0" x1="0%" y1="0%" x2="50%" y2="100%"><stop offset="10%" stop-color="#faf778" stop-opacity="1"></stop><stop offset="90%" stop-color="#faf778" stop-opacity="1"></stop></linearGradient></defs><defs><linearGradient id="grad2_1" x1="0%" y1="0%" x2="50%" y2="100%"><stop offset="10%" stop-color="#9ac167" stop-opacity="1"></stop><stop offset="90%" stop-color="#faf778" stop-opacity="1"></stop></linearGradient></defs><defs><linearGradient id="grad2_2" x1="0%" y1="0%" x2="50%" y2="100%"><stop offset="10%" stop-color="#9ac167" stop-opacity="1"></stop><stop offset="90%" stop-color="#508856" stop-opacity="1"></stop></linearGradient></defs><defs><linearGradient id="grad2_3" x1="0%" y1="0%" x2="50%" y2="100%"><stop offset="10%" stop-color="#1c503d" stop-opacity="1"></stop><stop offset="90%" stop-color="#508856" stop-opacity="1"></stop></linearGradient></defs><defs><linearGradient id="grad2_4" x1="0%" y1="0%" x2="50%" y2="100%"><stop offset="10%" stop-color="#1c503d" stop-opacity="1"></stop><stop offset="90%" stop-color="#031c19" stop-opacity="1"></stop></linearGradient></defs><g transform="translate(900, 0)"><path d="M0 328C-56.1 345.3 -112.2 362.6 -137.8 332.6C-163.3 302.6 -158.3 225.3 -186 186C-213.6 146.6 -273.9 145.2 -291 120.5C-308.1 95.9 -282.1 47.9 -256 0L0 0Z" fill="#0c352c"></path><path d="M0 262.4C-44.9 276.2 -89.8 290.1 -110.2 266.1C-130.7 242.1 -126.7 180.3 -148.8 148.8C-170.9 117.3 -219.1 116.2 -232.8 96.4C-246.5 76.7 -225.7 38.3 -204.8 0L0 0Z" fill="#336b4b"></path><path d="M0 196.8C-33.7 207.2 -67.3 217.6 -82.7 199.6C-98 181.6 -95 135.2 -111.6 111.6C-128.2 88 -164.3 87.1 -174.6 72.3C-184.9 57.5 -169.2 28.8 -153.6 0L0 0Z" fill="#72a45f"></path><path d="M0 131.2C-22.4 138.1 -44.9 145 -55.1 133C-65.3 121 -63.3 90.1 -74.4 74.4C-85.4 58.6 -109.6 58.1 -116.4 48.2C-123.3 38.3 -112.8 19.2 -102.4 0L0 0Z" fill="#c8dc6f"></path><path d="M0 65.6C-11.2 69.1 -22.4 72.5 -27.6 66.5C-32.7 60.5 -31.7 45.1 -37.2 37.2C-42.7 29.3 -54.8 29 -58.2 24.1C-61.6 19.2 -56.4 9.6 -51.2 0L0 0Z" fill="#faf778"></path></g><g transform="translate(0, 450)"><path d="M0 -358C36.8 -325.4 73.6 -292.7 114.8 -277.2C156 -261.6 201.8 -263.2 243.2 -243.2C284.7 -223.3 322 -181.9 332.6 -137.8C343.2 -93.6 327.1 -46.8 311 0L0 0Z" fill="#0c352c"></path><path d="M0 -286.4C29.4 -260.3 58.8 -234.2 91.8 -221.7C124.8 -209.3 161.4 -210.5 194.6 -194.6C227.8 -178.6 257.6 -145.5 266.1 -110.2C274.5 -74.9 261.7 -37.5 248.8 0L0 0Z" fill="#336b4b"></path><path d="M0 -214.8C22.1 -195.2 44.1 -175.6 68.9 -166.3C93.6 -157 121.1 -157.9 145.9 -145.9C170.8 -134 193.2 -109.1 199.6 -82.7C205.9 -56.2 196.3 -28.1 186.6 0L0 0Z" fill="#72a45f"></path><path d="M0 -143.2C14.7 -130.1 29.4 -117.1 45.9 -110.9C62.4 -104.6 80.7 -105.3 97.3 -97.3C113.9 -89.3 128.8 -72.8 133 -55.1C137.3 -37.5 130.8 -18.7 124.4 0L0 0Z" fill="#c8dc6f"></path><path d="M0 -71.6C7.4 -65.1 14.7 -58.5 23 -55.4C31.2 -52.3 40.4 -52.6 48.6 -48.6C56.9 -44.7 64.4 -36.4 66.5 -27.6C68.6 -18.7 65.4 -9.4 62.2 0L0 0Z" fill="#faf778"></path></g></svg>