<svg id="visual" viewBox="0 0 900 450" width="900" height="450" xmlns="http://www.w3.org/2000/svg" xmlns:xlink="http://www.w3.org/1999/xlink" version="1.1"><rect x="0" y="0" width="900" height="450" fill="#001c17"></rect><path d="M163 0L156.8 6.8C150.7 13.7 138.3 27.3 134.2 41C130 54.7 134 68.3 139.3 82C144.7 95.7 151.3 109.3 147.5 123C143.7 136.7 129.3 150.3 126.2 164C123 177.7 131 191.3 126.8 204.8C122.7 218.3 106.3 231.7 97.5 245.2C88.7 258.7 87.3 272.3 92.7 286C98 299.7 110 313.3 113.5 327C117 340.7 112 354.3 111.2 368C110.3 381.7 113.7 395.3 120.8 409C128 422.7 139 436.3 144.5 443.2L150 450L0 450L0 443.2C0 436.3 0 422.7 0 409C0 395.3 0 381.7 0 368C0 354.3 0 340.7 0 327C0 313.3 0 299.7 0 286C0 272.3 0 258.7 0 245.2C0 231.7 0 218.3 0 204.8C0 191.3 0 177.7 0 164C0 150.3 0 136.7 0 123C0 109.3 0 95.7 0 82C0 68.3 0 54.7 0 41C0 27.3 0 13.7 0 6.8L0 0Z" fill="#c99394" stroke-linecap="round" stroke-linejoin="miter"></path></svg>